<?xml version="1.0" standalone="no"?>
<!DOCTYPE svg PUBLIC "-//W3C//DTD SVG 20010904//EN"
 "http://www.w3.org/TR/2001/REC-SVG-20010904/DTD/svg10.dtd">
<svg version="1.0" xmlns="http://www.w3.org/2000/svg"
 width="260.000000pt" height="260.000000pt" viewBox="0 0 260.000000 260.000000"
 preserveAspectRatio="xMidYMid meet">
<metadata>
Created by potrace 1.14, written by Peter Selinger 2001-2017
</metadata>
<g transform="translate(0.000000,260.000000) scale(0.100000,-0.100000)"
fill="#000000" stroke="none">
<path d="M709 2596 c-2 -2 -24 -6 -49 -9 -149 -19 -330 -115 -442 -235 -87
-93 -148 -199 -191 -332 -21 -63 -21 -85 -24 -685 -1 -384 1 -639 8 -670 5
-27 11 -57 12 -65 19 -105 97 -246 193 -350 96 -103 213 -174 364 -222 l75
-23 650 0 650 0 96 33 c236 82 405 241 495 467 53 133 54 150 51 825 l-2 625
-33 94 c-100 288 -318 480 -607 536 -54 11 -205 14 -656 15 -322 0 -587 -1
-590 -4z"/>
</g>
</svg>
